umbra-4.ufo
<glyph name="quotedbl" format="1">
  <advance width="390"/>
  <unicode hex="0022"/>
  <outline>
    <contour>
      <point x="145" y="417" type="line"/>
      <point x="115" y="627" type="line"/>
      <point x="245" y="627" type="line"/>
      <point x="215" y="417" type="line"/>
    </contour>
    <contour>
      <point x="315" y="417" type="line"/>
      <point x="285" y="627" type="line"/>
      <point x="415" y="627" type="line"/>
      <point x="385" y="417" type="line"/>
    </contour>
  </outline>
</glyph>
<glyph name="numbersign" format="1">
  <advance width="600"/>
  <unicode hex="0023"/>
  <outline>
    <contour>
      <point x="90" y="242" type="line"/>
      <point x="90" y="337" type="line"/>
      <point x="213" y="337" type="line"/>
      <point x="227" y="417" type="line"/>
      <point x="140" y="417" type="line"/>
      <point x="140" y="512" type="line"/>
      <point x="244" y="512" type="line"/>
      <point x="265" y="627" type="line"/>
      <point x="370" y="627" type="line"/>
      <point x="349" y="512" type="line"/>
      <point x="429" y="512" type="line"/>
      <point x="450" y="627" type="line"/>
      <point x="555" y="627" type="line"/>
      <point x="534" y="512" type="line"/>
      <point x="640" y="512" type="line"/>
      <point x="640" y="417" type="line"/>
      <point x="517" y="417" type="line"/>
      <point x="503" y="337" type="line"/>
      <point x="590" y="337" type="line"/>
      <point x="590" y="242" type="line"/>
      <point x="486" y="242" type="line"/>
      <point x="465" y="127" type="line"/>
      <point x="360" y="127" type="line"/>
      <point x="381" y="242" type="line"/>
      <point x="301" y="242" type="line"/>
      <point x="280" y="127" type="line"/>
      <point x="175" y="127" type="line"/>
      <point x="196" y="242" type="line"/>
    </contour>
    <contour>
      <point x="398" y="337" type="line"/>
      <point x="412" y="417" type="line"/>
      <point x="332" y="417" type="line"/>
      <point x="318" y="337" type="line"/>
    </contour>
  </outline>
</glyph>
<glyph name="dollar" format="1">
  <advance width="449"/>
  <unicode hex="0024"/>
  <outline>
    <contour>
      <point x="349" y="277" type="curve" smooth="yes"/>
      <point x="349" y="337"/>
      <point x="116" y="340"/>
      <point x="116" y="490" type="curve" smooth="yes"/>
      <point x="116" y="569"/>
      <point x="172" y="620"/>
      <point x="250" y="636" type="curve"/>
      <point x="235" y="697" type="line"/>
      <point x="375" y="697" type="line"/>
      <point x="360" y="636" type="line"/>
      <point x="406" y="624"/>
      <point x="448" y="597"/>
      <point x="485" y="555" type="curve"/>
      <point x="445" y="445" type="line"/>
      <point x="405" y="483"/>
      <point x="357" y="522"/>
      <point x="309" y="522" type="curve" smooth="yes"/>
      <point x="281" y="522"/>
      <point x="271" y="508"/>
      <point x="271" y="490" type="curve" smooth="yes"/>
      <point x="271" y="430"/>
      <point x="494" y="423"/>
      <point x="494" y="279" type="curve" smooth="yes"/>
      <point x="494" y="174"/>
      <point x="429" y="129"/>
      <point x="346" y="116" type="curve"/>
      <point x="362" y="52" type="line"/>
      <point x="222" y="52" type="line"/>
      <point x="238" y="116" type="line"/>
      <point x="169" y="126"/>
      <point x="117" y="156"/>
      <point x="85" y="194" type="curve"/>
      <point x="125" y="309" type="line"/>
      <point x="165" y="271"/>
      <point x="234" y="237"/>
      <point x="282" y="237" type="curve" smooth="yes"/>
      <point x="320" y="237"/>
      <point x="349" y="246"/>
    </contour>
  </outline>
</glyph>
<glyph name="percent" format="1">
  <advance width="641"/>
  <unicode hex="0025"/>
  <outline>
    <contour>
      <point x="170" y="127" type="line"/>
      <point x="480" y="627" type="line"/>
      <point x="610" y="627" type="line"/>
      <point x="300" y="127" type="line"/>
    </contour>
    <contour>
      <point x="220" y="435" type="line"/>
      <point x="115" y="540" type="line"/>
      <point x="220" y="646" type="line"/>
      <point x="326" y="540" type="line"/>
    </contour>
    <contour>
      <point x="560" y="99" type="line"/>
      <point x="455" y="204" type="line"/>
      <point x="560" y="310" type="line"/>
      <point x="666" y="204" type="line"/>
    </contour>
  </outline>
</glyph>
<glyph name="quotesingle" format="1">
  <advance width="220"/>
  <unicode hex="0027"/>
  <outline>
    <contour>
      <point x="115" y="367" type="line"/>
      <point x="115" y="627" type="line"/>
      <point x="245" y="627" type="line"/>
      <point x="245" y="487" type="line"/>
    </contour>
  </outline>
</glyph>
<glyph name="comma" format="1">
  <advance width="220"/>
  <unicode hex="002C"/>
  <outline>
    <contour>
      <point x="115" y="7" type="line"/>
      <point x="115" y="267" type="line"/>
      <point x="245" y="267" type="line"/>
      <point x="245" y="127" type="line"/>
    </contour>
  </outline>
</glyph>
<glyph name="period" format="1">
  <advance width="291"/>
  <unicode hex="002E"/>
  <outline>
    <contour>
      <point x="215" y="99" type="line"/>
      <point x="110" y="204" type="line"/>
      <point x="215" y="310" type="line"/>
      <point x="321" y="204" type="line"/>
    </contour>
  </outline>
</glyph>
<glyph name="slash" format="1">
  <advance width="460"/>
  <unicode hex="002F"/>
  <outline>
    <contour>
      <point x="80" y="127" type="line"/>
      <point x="390" y="627" type="line"/>
      <point x="520" y="627" type="line"/>
      <point x="210" y="127" type="line"/>
    </contour>
  </outline>
</glyph>
<glyph name="zero" format="1">
  <advance width="510"/>
  <unicode hex="0030"/>
  <outline>
    <contour>
      <point x="100" y="377" type="curve" smooth="yes"/>
      <point x="100" y="526"/>
      <point x="170" y="647"/>
      <point x="325" y="647" type="curve" smooth="yes"/>
      <point x="480" y="647"/>
      <point x="550" y="526"/>
      <point x="550" y="377" type="curve" smooth="yes"/>
      <point x="550" y="228"/>
      <point x="480" y="107"/>
      <point x="325" y="107" type="curve" smooth="yes"/>
      <point x="170" y="107"/>
      <point x="100" y="228"/>
    </contour>
    <contour>
      <point x="245" y="377" type="curve" smooth="yes"/>
      <point x="245" y="284"/>
      <point x="273" y="232"/>
      <point x="325" y="232" type="curve" smooth="yes"/>
      <point x="377" y="232"/>
      <point x="405" y="284"/>
      <point x="405" y="377" type="curve" smooth="yes"/>
      <point x="405" y="470"/>
      <point x="377" y="522"/>
      <point x="325" y="522" type="curve" smooth="yes"/>
      <point x="273" y="522"/>
      <point x="245" y="470"/>
    </contour>
  </outline>
</glyph>
<glyph name="three" format="1">
  <advance width="464"/>
  <unicode hex="0033"/>
  <outline>
    <contour>
      <point x="227" y="336" type="line"/>
      <point x="227" y="431" type="line"/>
      <point x="277" y="431" type="line" smooth="yes"/>
      <point x="325" y="431"/>
      <point x="334" y="456"/>
      <point x="334" y="484" type="curve" smooth="yes"/>
      <point x="334" y="507"/>
      <point x="320" y="522"/>
      <point x="292" y="522" type="curve" smooth="yes"/>
      <point x="244" y="522"/>
      <point x="196" y="483"/>
      <point x="156" y="445" type="curve"/>
      <point x="116" y="555" type="line"/>
      <point x="166" y="612"/>
      <point x="226" y="642"/>
      <point x="293" y="642" type="curve" smooth="yes"/>
      <point x="400" y="642"/>
      <point x="485" y="597"/>
      <point x="485" y="500" type="curve" smooth="yes"/>
      <point x="485" y="445"/>
      <point x="459" y="412"/>
      <point x="414" y="394" type="curve"/>
      <point x="468" y="374"/>
      <point x="499" y="335"/>
      <point x="499" y="279" type="curve" smooth="yes"/>
      <point x="499" y="152"/>
      <point x="374" y="112"/>
      <point x="297" y="112" type="curve" smooth="yes"/>
      <point x="200" y="112"/>
      <point x="130" y="147"/>
      <point x="90" y="194" type="curve"/>
      <point x="130" y="309" type="line"/>
      <point x="170" y="271"/>
      <point x="229" y="237"/>
      <point x="277" y="237" type="curve" smooth="yes"/>
      <point x="325" y="237"/>
      <point x="354" y="246"/>
      <point x="354" y="287" type="curve" smooth="yes"/>
      <point x="354" y="325"/>
      <point x="325" y="336"/>
      <point x="277" y="336" type="curve" smooth="yes"/>
    </contour>
  </outline>
</glyph>
<glyph name="five" format="1">
  <advance width="449"/>
  <unicode hex="0035"/>
  <outline>
    <contour>
      <point x="135" y="366" type="line"/>
      <point x="165" y="627" type="line"/>
      <point x="465" y="627" type="line"/>
      <point x="455" y="512" type="line"/>
      <point x="272" y="512" type="line"/>
      <point x="266" y="461" type="line"/>
      <point x="381" y="460"/>
      <point x="484" y="405"/>
      <point x="484" y="279" type="curve" smooth="yes"/>
      <point x="484" y="152"/>
      <point x="369" y="112"/>
      <point x="282" y="112" type="curve" smooth="yes"/>
      <point x="205" y="112"/>
      <point x="135" y="147"/>
      <point x="95" y="184" type="curve"/>
      <point x="115" y="309" type="line"/>
      <point x="155" y="271"/>
      <point x="204" y="237"/>
      <point x="262" y="237" type="curve" smooth="yes"/>
      <point x="310" y="237"/>
      <point x="339" y="256"/>
      <point x="339" y="307" type="curve" smooth="yes"/>
      <point x="339" y="365"/>
      <point x="260" y="366"/>
      <point x="212" y="366" type="curve" smooth="yes"/>
    </contour>
  </outline>
</glyph>
<glyph name="colon" format="1">
  <advance width="291"/>
  <unicode hex="003A"/>
  <outline>
    <contour>
      <point x="215" y="384" type="line"/>
      <point x="110" y="489" type="line"/>
      <point x="215" y="595" type="line"/>
      <point x="321" y="489" type="line"/>
    </contour>
    <contour>
      <point x="215" y="99" type="line"/>
      <point x="110" y="204" type="line"/>
      <point x="215" y="310" type="line"/>
      <point x="321" y="204" type="line"/>
    </contour>
  </outline>
</glyph>
<glyph name="at" format="1">
  <advance width="700"/>
  <unicode hex="0040"/>
  <outline>
    <contour>
      <point x="750" y="347" type="curve" smooth="yes"/>
      <point x="750" y="217"/>
      <point x="703" y="115"/>
      <point x="576" y="115" type="curve" smooth="yes"/>
      <point x="529" y="115"/>
      <point x="484" y="126"/>
      <point x="469" y="172" type="curve"/>
      <point x="445" y="145"/>
      <point x="413" y="127"/>
      <point x="377" y="127" type="curve" smooth="yes"/>
      <point x="270" y="127"/>
      <point x="225" y="222"/>
      <point x="225" y="309" type="curve" smooth="yes"/>
      <point x="225" y="396"/>
      <point x="280" y="492"/>
      <point x="367" y="492" type="curve" smooth="yes"/>
      <point x="404" y="492"/>
      <point x="437" y="475"/>
      <point x="464" y="449" type="curve"/>
      <point x="464" y="482" type="line"/>
      <point x="599" y="482" type="line"/>
      <point x="599" y="237" type="line" smooth="yes"/>
      <point x="599" y="209"/>
      <point x="601" y="200"/>
      <point x="616" y="200" type="curve" smooth="yes"/>
      <point x="644" y="200"/>
      <point x="665" y="267"/>
      <point x="665" y="347" type="curve" smooth="yes"/>
      <point x="665" y="520"/>
      <point x="547" y="577"/>
      <point x="425" y="577" type="curve" smooth="yes"/>
      <point x="313" y="577"/>
      <point x="175" y="490"/>
      <point x="175" y="317" type="curve" smooth="yes"/>
      <point x="175" y="114"/>
      <point x="303" y="62"/>
      <point x="455" y="62" type="curve"/>
      <point x="455" y="-3" type="line"/>
      <point x="230" y="-3"/>
      <point x="90" y="98"/>
      <point x="90" y="317" type="curve" smooth="yes"/>
      <point x="90" y="506"/>
      <point x="240" y="647"/>
      <point x="425" y="647" type="curve" smooth="yes"/>
      <point x="620" y="647"/>
      <point x="750" y="516"/>
    </contour>
    <contour>
      <point x="464" y="256" type="curve"/>
      <point x="464" y="363" type="line"/>
      <point x="447" y="381"/>
      <point x="423" y="387"/>
      <point x="407" y="387" type="curve" smooth="yes"/>
      <point x="379" y="387"/>
      <point x="360" y="357"/>
      <point x="360" y="309" type="curve" smooth="yes"/>
      <point x="360" y="261"/>
      <point x="379" y="232"/>
      <point x="407" y="232" type="curve" smooth="yes"/>
      <point x="423" y="232"/>
      <point x="447" y="239"/>
    </contour>
  </outline>
</glyph>
<glyph name="A" format="1">
  <advance width="580"/>
  <unicode hex="0041"/>
  <outline>
    <contour>
      <point x="80" y="127" type="line"/>
      <point x="280" y="627" type="line"/>
      <point x="440" y="627" type="line"/>
      <point x="640" y="127" type="line"/>
      <point x="490" y="127" type="line"/>
      <point x="459" y="212" type="line"/>
      <point x="261" y="212" type="line"/>
      <point x="230" y="127" type="line"/>
    </contour>
    <contour>
      <point x="360" y="488" type="line"/>
      <point x="302" y="327" type="line"/>
      <point x="418" y="327" type="line"/>
    </contour>
  </outline>
</glyph>
<glyph name="B" format="1">
  <advance width="502"/>
  <unicode hex="0042"/>
  <outline>
    <contour>
      <point x="115" y="127" type="curve"/>
      <point x="115" y="627" type="line"/>
      <point x="188" y="627"/>
      <point x="262" y="627"/>
      <point x="335" y="627" type="curve" smooth="yes"/>
      <point x="452" y="627"/>
      <point x="527" y="572"/>
      <point x="527" y="485" type="curve" smooth="yes"/>
      <point x="527" y="431"/>
      <point x="504" y="401"/>
      <point x="464" y="385" type="curve"/>
      <point x="517" y="364"/>
      <point x="547" y="326"/>
      <point x="547" y="270" type="curve" smooth="yes"/>
      <point x="547" y="173"/>
      <point x="472" y="127"/>
      <point x="355" y="127" type="curve" smooth="yes"/>
      <point x="275" y="127"/>
      <point x="195" y="127"/>
    </contour>
    <contour>
      <point x="335" y="522" type="curve" smooth="yes"/>
      <point x="255" y="522" type="line"/>
      <point x="255" y="432" type="line"/>
      <point x="335" y="432" type="line" smooth="yes"/>
      <point x="363" y="432"/>
      <point x="382" y="447"/>
      <point x="382" y="475" type="curve" smooth="yes"/>
      <point x="382" y="503"/>
      <point x="363" y="522"/>
    </contour>
    <contour>
      <point x="255" y="337" type="line"/>
      <point x="255" y="237" type="line"/>
      <point x="345" y="237" type="line" smooth="yes"/>
      <point x="383" y="237"/>
      <point x="402" y="260"/>
      <point x="402" y="288" type="curve" smooth="yes"/>
      <point x="402" y="316"/>
      <point x="383" y="337"/>
      <point x="345" y="337" type="curve" smooth="yes"/>
    </contour>
  </outline>
</glyph>
<glyph name="E" format="1">
  <advance width="455"/>
  <unicode hex="0045"/>
  <outline>
    <contour>
      <point x="115" y="127" type="curve"/>
      <point x="115" y="627" type="line"/>
      <point x="242" y="627"/>
      <point x="368" y="627"/>
      <point x="495" y="627" type="curve"/>
      <point x="495" y="512" type="line"/>
      <point x="255" y="512" type="line"/>
      <point x="255" y="437" type="line"/>
      <point x="465" y="437" type="line"/>
      <point x="465" y="322" type="line"/>
      <point x="255" y="322" type="line"/>
      <point x="255" y="247" type="line"/>
      <point x="495" y="247" type="line"/>
      <point x="495" y="127" type="line"/>
      <point x="368" y="127"/>
      <point x="242" y="127"/>
    </contour>
  </outline>
</glyph>
<glyph name="L" format="1">
  <advance width="445"/>
  <unicode hex="004C"/>
  <outline>
    <contour>
      <point x="115" y="127" type="curve"/>
      <point x="115" y="627" type="line"/>
      <point x="255" y="627" type="line"/>
      <point x="255" y="247" type="line"/>
      <point x="495" y="247" type="line"/>
      <point x="495" y="127" type="line"/>
      <point x="368" y="127"/>
      <point x="242" y="127"/>
    </contour>
  </outline>
</glyph>
<glyph name="P" format="1">
  <advance width="487"/>
  <unicode hex="0050"/>
  <outline>
    <contour>
      <point x="115" y="127" type="line"/>
      <point x="115" y="627" type="line"/>
      <point x="188" y="627"/>
      <point x="262" y="627"/>
      <point x="335" y="627" type="curve" smooth="yes"/>
      <point x="452" y="627"/>
      <point x="537" y="552"/>
      <point x="537" y="445" type="curve" smooth="yes"/>
      <point x="537" y="328"/>
      <point x="452" y="262"/>
      <point x="335" y="262" type="curve" smooth="yes"/>
      <point x="255" y="262" type="line"/>
      <point x="255" y="127" type="line"/>
    </contour>
    <contour>
      <point x="325" y="512" type="curve" smooth="yes"/>
      <point x="255" y="512" type="line"/>
      <point x="255" y="377" type="line"/>
      <point x="325" y="377" type="line" smooth="yes"/>
      <point x="363" y="377"/>
      <point x="392" y="397"/>
      <point x="392" y="445" type="curve" smooth="yes"/>
      <point x="392" y="493"/>
      <point x="363" y="512"/>
    </contour>
  </outline>
</glyph>
<glyph name="R" format="1">
  <advance width="515"/>
  <unicode hex="0052"/>
  <outline>
    <contour>
      <point x="115" y="127" type="line"/>
      <point x="115" y="627" type="line"/>
      <point x="188" y="627"/>
      <point x="262" y="627"/>
      <point x="335" y="627" type="curve" smooth="yes"/>
      <point x="452" y="627"/>
      <point x="537" y="582"/>
      <point x="537" y="455" type="curve" smooth="yes"/>
      <point x="537" y="376"/>
      <point x="490" y="335"/>
      <point x="418" y="320" type="curve"/>
      <point x="565" y="127" type="line"/>
      <point x="405" y="127" type="line"/>
      <point x="255" y="317" type="line"/>
      <point x="255" y="127" type="line"/>
    </contour>
    <contour>
      <point x="322" y="512" type="curve" smooth="yes"/>
      <point x="255" y="512" type="line"/>
      <point x="255" y="397" type="line"/>
      <point x="322" y="397" type="line" smooth="yes"/>
      <point x="360" y="397"/>
      <point x="392" y="407"/>
      <point x="392" y="455" type="curve" smooth="yes"/>
      <point x="392" y="503"/>
      <point x="360" y="512"/>
    </contour>
  </outline>
</glyph>
<glyph name="S" format="1">
  <advance width="449"/>
  <unicode hex="0053"/>
  <outline>
    <contour>
      <point x="349" y="277" type="curve" smooth="yes"/>
      <point x="349" y="337"/>
      <point x="116" y="340"/>
      <point x="116" y="490" type="curve" smooth="yes"/>
      <point x="116" y="587"/>
      <point x="201" y="642"/>
      <point x="308" y="642" type="curve" smooth="yes"/>
      <point x="375" y="642"/>
      <point x="435" y="612"/>
      <point x="485" y="555" type="curve"/>
      <point x="445" y="445" type="line"/>
      <point x="405" y="483"/>
      <point x="357" y="522"/>
      <point x="309" y="522" type="curve" smooth="yes"/>
      <point x="281" y="522"/>
      <point x="271" y="508"/>
      <point x="271" y="490" type="curve" smooth="yes"/>
      <point x="271" y="430"/>
      <point x="494" y="423"/>
      <point x="494" y="279" type="curve" smooth="yes"/>
      <point x="494" y="152"/>
      <point x="399" y="112"/>
      <point x="292" y="112" type="curve" smooth="yes"/>
      <point x="195" y="112"/>
      <point x="125" y="147"/>
      <point x="85" y="194" type="curve"/>
      <point x="125" y="309" type="line"/>
      <point x="165" y="271"/>
      <point x="234" y="237"/>
      <point x="282" y="237" type="curve" smooth="yes"/>
      <point x="320" y="237"/>
      <point x="349" y="246"/>
    </contour>
  </outline>
</glyph>
<glyph name="T" format="1">
  <advance width="480"/>
  <unicode hex="0054"/>
  <outline>
    <contour>
      <point x="90" y="507" type="line"/>
      <point x="90" y="627" type="line"/>
      <point x="530" y="627" type="line"/>
      <point x="530" y="507" type="line"/>
      <point x="380" y="507" type="line"/>
      <point x="380" y="127" type="line"/>
      <point x="240" y="127" type="line"/>
      <point x="240" y="507" type="line"/>
    </contour>
  </outline>
</glyph>
<glyph name="W" format="1">
  <advance width="880"/>
  <unicode hex="0057"/>
  <outline>
    <contour>
      <point x="930" y="627" type="line"/>
      <point x="740" y="127" type="line"/>
      <point x="580" y="127" type="line"/>
      <point x="512" y="322" type="line"/>
      <point x="440" y="127" type="line"/>
      <point x="280" y="127" type="line"/>
      <point x="90" y="627" type="line"/>
      <point x="240" y="627" type="line"/>
      <point x="364" y="262" type="line"/>
      <point x="451" y="480" type="line"/>
      <point x="390" y="627" type="line"/>
      <point x="550" y="627" type="line"/>
      <point x="662" y="279" type="line"/>
      <point x="780" y="627" type="line"/>
    </contour>
  </outline>
</glyph>
<glyph name="backslash" format="1">
  <advance width="460"/>
  <unicode hex="005C"/>
  <outline>
    <contour>
      <point x="520" y="127" type="line"/>
      <point x="390" y="127" type="line"/>
      <point x="80" y="627" type="line"/>
      <point x="210" y="627" type="line"/>
    </contour>
  </outline>
</glyph>
<glyph name="c" format="1">
  <advance width="404"/>
  <unicode hex="0063"/>
  <outline>
    <contour>
      <point x="105" y="319" type="curve" smooth="yes"/>
      <point x="105" y="446"/>
      <point x="200" y="522"/>
      <point x="317" y="522" type="curve" smooth="yes"/>
      <point x="355" y="522"/>
      <point x="403" y="511"/>
      <point x="429" y="487" type="curve"/>
      <point x="389" y="384" type="line"/>
      <point x="377" y="399"/>
      <point x="350" y="412"/>
      <point x="327" y="412" type="curve" smooth="yes"/>
      <point x="269" y="412"/>
      <point x="240" y="367"/>
      <point x="240" y="319" type="curve" smooth="yes"/>
      <point x="240" y="271"/>
      <point x="269" y="227"/>
      <point x="327" y="227" type="curve" smooth="yes"/>
      <point x="350" y="227"/>
      <point x="377" y="241"/>
      <point x="389" y="255" type="curve"/>
      <point x="429" y="152" type="line"/>
      <point x="403" y="128"/>
      <point x="355" y="117"/>
      <point x="317" y="117" type="curve" smooth="yes"/>
      <point x="200" y="117"/>
      <point x="105" y="202"/>
    </contour>
  </outline>
</glyph>
<glyph name="e" format="1">
  <advance width="469"/>
  <unicode hex="0065"/>
  <outline>
    <contour>
      <point x="110" y="319" type="curve" smooth="yes"/>
      <point x="110" y="446"/>
      <point x="195" y="522"/>
      <point x="312" y="522" type="curve" smooth="yes"/>
      <point x="429" y="522"/>
      <point x="504" y="446"/>
      <point x="504" y="339" type="curve"/>
      <point x="262" y="250" type="line"/>
      <point x="278" y="230"/>
      <point x="301" y="217"/>
      <point x="332" y="217" type="curve" smooth="yes"/>
      <point x="375" y="217"/>
      <point x="402" y="241"/>
      <point x="424" y="275" type="curve"/>
      <point x="484" y="182" type="line"/>
      <point x="448" y="138"/>
      <point x="390" y="117"/>
      <point x="322" y="117" type="curve" smooth="yes"/>
      <point x="205" y="117"/>
      <point x="110" y="192"/>
    </contour>
    <contour>
      <point x="388" y="393" type="line"/>
      <point x="373" y="413"/>
      <point x="349" y="426"/>
      <point x="315" y="426" type="curve" smooth="yes"/>
      <point x="260" y="426"/>
      <point x="238" y="380"/>
      <point x="235" y="335" type="curve"/>
    </contour>
  </outline>
</glyph>
<glyph name="f" format="1">
  <advance width="333"/>
  <unicode hex="0066"/>
  <outline>
    <contour>
      <point x="269" y="127" type="line"/>
      <point x="134" y="127" type="line"/>
      <point x="134" y="412" type="line"/>
      <point x="90" y="412" type="line"/>
      <point x="90" y="512" type="line"/>
      <point x="134" y="512" type="line"/>
      <point x="134" y="515" type="line" smooth="yes"/>
      <point x="134" y="612"/>
      <point x="219" y="667"/>
      <point x="296" y="667" type="curve" smooth="yes"/>
      <point x="363" y="667"/>
      <point x="393" y="652"/>
      <point x="443" y="605" type="curve"/>
      <point x="403" y="505" type="line"/>
      <point x="363" y="543"/>
      <point x="334" y="557"/>
      <point x="316" y="557" type="curve" smooth="yes"/>
      <point x="293" y="557"/>
      <point x="276" y="548"/>
      <point x="271" y="512" type="curve"/>
      <point x="355" y="512" type="line"/>
      <point x="355" y="412" type="line"/>
      <point x="269" y="412" type="line"/>
    </contour>
  </outline>
</glyph>
<glyph name="g" format="1">
  <advance width="489"/>
  <unicode hex="0067"/>
  <outline>
    <contour>
      <point x="384" y="185" type="line"/>
      <point x="353" y="155"/>
      <point x="312" y="137"/>
      <point x="267" y="137" type="curve" smooth="yes"/>
      <point x="160" y="137"/>
      <point x="105" y="222"/>
      <point x="105" y="329" type="curve" smooth="yes"/>
      <point x="105" y="436"/>
      <point x="160" y="522"/>
      <point x="267" y="522" type="curve" smooth="yes"/>
      <point x="312" y="522"/>
      <point x="353" y="506"/>
      <point x="384" y="477" type="curve"/>
      <point x="384" y="512" type="line"/>
      <point x="519" y="512" type="line"/>
      <point x="519" y="87" type="line" smooth="yes"/>
      <point x="519" y="-10"/>
      <point x="424" y="-65"/>
      <point x="337" y="-65" type="curve" smooth="yes"/>
      <point x="260" y="-65"/>
      <point x="190" y="-40"/>
      <point x="130" y="-3" type="curve"/>
      <point x="170" y="97" type="line"/>
      <point x="220" y="59"/>
      <point x="279" y="45"/>
      <point x="317" y="45" type="curve" smooth="yes"/>
      <point x="365" y="45"/>
      <point x="384" y="59"/>
      <point x="384" y="117" type="curve" smooth="yes"/>
    </contour>
    <contour>
      <point x="384" y="385" type="line"/>
      <point x="365" y="406"/>
      <point x="336" y="417"/>
      <point x="307" y="417" type="curve" smooth="yes"/>
      <point x="259" y="417"/>
      <point x="240" y="377"/>
      <point x="240" y="329" type="curve" smooth="yes"/>
      <point x="240" y="281"/>
      <point x="259" y="242"/>
      <point x="307" y="242" type="curve" smooth="yes"/>
      <point x="336" y="242"/>
      <point x="365" y="253"/>
      <point x="384" y="274" type="curve"/>
    </contour>
  </outline>
</glyph>
<glyph name="i" format="1">
  <advance width="271"/>
  <unicode hex="0069"/>
  <outline>
    <contour>
      <point x="138" y="127" type="line"/>
      <point x="138" y="512" type="line"/>
      <point x="273" y="512" type="line"/>
      <point x="273" y="127" type="line"/>
    </contour>
    <contour>
      <point x="205" y="569" type="line"/>
      <point x="110" y="664" type="line"/>
      <point x="205" y="760" type="line"/>
      <point x="301" y="664" type="line"/>
    </contour>
  </outline>
</glyph>
<glyph name="j" format="1">
  <advance width="277"/>
  <unicode hex="006A"/>
  <outline>
    <contour>
      <point x="144" y="512" type="line"/>
      <point x="279" y="512" type="line"/>
      <point x="279" y="31" type="line" smooth="yes"/>
      <point x="279" y="-66"/>
      <point x="194" y="-121"/>
      <point x="117" y="-121" type="curve" smooth="yes"/>
      <point x="50" y="-121"/>
      <point x="20" y="-106"/>
      <point x="-30" y="-59" type="curve"/>
      <point x="10" y="41" type="line"/>
      <point x="50" y="3"/>
      <point x="79" y="-11"/>
      <point x="97" y="-11" type="curve" smooth="yes"/>
      <point x="125" y="-11"/>
      <point x="144" y="3"/>
      <point x="144" y="61" type="curve" smooth="yes"/>
    </contour>
    <contour>
      <point x="211" y="569" type="line"/>
      <point x="116" y="664" type="line"/>
      <point x="211" y="760" type="line"/>
      <point x="307" y="664" type="line"/>
    </contour>
  </outline>
</glyph>
<glyph name="k" format="1">
  <advance width="485"/>
  <unicode hex="006B"/>
  <outline>
    <contour>
      <point x="110" y="127" type="line"/>
      <point x="110" y="657" type="line"/>
      <point x="245" y="657" type="line"/>
      <point x="245" y="377" type="line"/>
      <point x="380" y="512" type="line"/>
      <point x="545" y="512" type="line"/>
      <point x="385" y="352" type="line"/>
      <point x="555" y="127" type="line"/>
      <point x="390" y="127" type="line"/>
      <point x="245" y="319" type="line"/>
      <point x="245" y="127" type="line"/>
    </contour>
  </outline>
</glyph>
<glyph name="l" format="1">
  <advance width="215"/>
  <unicode hex="006C"/>
  <outline>
    <contour>
      <point x="110" y="127" type="line"/>
      <point x="110" y="657" type="line"/>
      <point x="245" y="657" type="line"/>
      <point x="245" y="127" type="line"/>
    </contour>
  </outline>
</glyph>
<glyph name="v" format="1">
  <advance width="465"/>
  <unicode hex="0076"/>
  <outline>
    <contour>
      <point x="230" y="127" type="line"/>
      <point x="80" y="512" type="line"/>
      <point x="225" y="512" type="line"/>
      <point x="306" y="228" type="line"/>
      <point x="380" y="512" type="line"/>
      <point x="525" y="512" type="line"/>
      <point x="385" y="127" type="line"/>
    </contour>
  </outline>
</glyph>
<glyph name="y" format="1">
  <advance width="470"/>
  <unicode hex="0079"/>
  <outline>
    <contour>
      <point x="250" y="158" type="line"/>
      <point x="80" y="512" type="line"/>
      <point x="235" y="512" type="line"/>
      <point x="309" y="309" type="line"/>
      <point x="390" y="512" type="line"/>
      <point x="530" y="512" type="line"/>
      <point x="310" y="-18" type="line"/>
      <point x="180" y="-18" type="line"/>
    </contour>
  </outline>
</glyph>
<glyph name="quoteright" format="1">
  <advance width="220"/>
  <unicode hex="2019"/>
  <outline>
    <contour>
      <point x="115" y="367" type="line"/>
      <point x="115" y="627" type="line"/>
      <point x="245" y="627" type="line"/>
      <point x="245" y="487" type="line"/>
    </contour>
  </outline>
</glyph>
<glyph name="quotedblleft" format="1">
  <advance width="430"/>
  <unicode hex="201C"/>
  <outline>
    <contour>
      <point x="455" y="667" type="line"/>
      <point x="455" y="407" type="line"/>
      <point x="325" y="407" type="line"/>
      <point x="325" y="547" type="line"/>
    </contour>
    <contour>
      <point x="245" y="667" type="line"/>
      <point x="245" y="407" type="line"/>
      <point x="115" y="407" type="line"/>
      <point x="115" y="547" type="line"/>
    </contour>
  </outline>
</glyph>
<glyph name="quotedblright" format="1">
  <advance width="430"/>
  <unicode hex="201D"/>
  <outline>
    <contour>
      <point x="325" y="367" type="line"/>
      <point x="325" y="627" type="line"/>
      <point x="455" y="627" type="line"/>
      <point x="455" y="487" type="line"/>
    </contour>
    <contour>
      <point x="115" y="367" type="line"/>
      <point x="115" y="627" type="line"/>
      <point x="245" y="627" type="line"/>
      <point x="245" y="487" type="line"/>
    </contour>
  </outline>
</glyph>
